<svg width="56" height="56" viewBox="0 0 56 56" fill="none" xmlns="http://www.w3.org/2000/svg"><path d="M40.952 45.642c-1.08.752-2.249 1.41-3.514 1.932A18.646 18.646 0 0 1 30.273 49c-9.64 0-17.57-7.282-18.606-16.646M38.596 30.273v3.122a5.2 5.2 0 0 0 5.2 5.2 5.2 5.2 0 0 0 5.202-5.2v-3.122c0-9.64-7.283-17.57-16.646-18.606M15.75 26.833c-6.12 0-11.083-4.963-11.083-11.083S9.63 4.667 15.75 4.667 26.833 9.63 26.833 15.75 21.87 26.833 15.75 26.833M12.623 12.623l6.254 6.254M12.623 18.877l6.254-6.254" stroke="red" stroke-width="2" stroke-linecap="round" stroke-linejoin="round"/><path d="M22.244 32.354c.928 3.584 4.155 6.242 8.029 6.242a8.323 8.323 0 0 0 8.323-8.323c0-3.874-2.66-7.1-6.242-8.03" stroke="red" stroke-width="2" stroke-linecap="round" stroke-linejoin="round"/></svg>