<svg width="56" height="56" viewBox="0 0 56 56" fill="none" xmlns="http://www.w3.org/2000/svg">
<path d="M6.991 38.017h5.449c.825 0 1.617-.327 2.2-.91v0c.584-.585.912-1.376.911-2.202V22.454c0-.826-.327-1.617-.91-2.201v0a3.112 3.112 0 0 0-2.201-.91H6.99M49.009 19.342h-5.446c-.826 0-1.617.327-2.201.91v0a3.11 3.11 0 0 0-.91 2.202v12.451c-.001.826.326 1.617.91 2.201v0c.584.584 1.375.911 2.2.91h5.447" stroke="red" stroke-width="2" stroke-linecap="round" stroke-linejoin="round"/><path d="M40.498 35.442H38.49a4.65 4.65 0 0 0-1.935.42l-9.82 4.473M24.837 21.485a4.64 4.64 0 0 0-3.91-.383l-5.369 1.935M40.825 20.944l-6.714-2.956a4.669 4.669 0 0 0-4.419.355L23.6 22.29a3.515 3.515 0 0 0-.45 5.554v0a3.518 3.518 0 0 0 3.846.581l3.632-1.695" stroke="red" stroke-width="2" stroke-linecap="round" stroke-linejoin="round"/><path d="m30.628 26.728 1.844 1.674a4.669 4.669 0 0 1 .02 6.902l-4.71 4.31a4.669 4.669 0 0 1-6.285.016l-3.236-2.934a4.668 4.668 0 0 0-2.766-1.168" stroke="red" stroke-width="2" stroke-linecap="round" stroke-linejoin="round"/><rect x="6.991" y="6.991" width="42.017" height="42.017" rx="4" stroke="red" stroke-width="2" stroke-linecap="round" stroke-linejoin="round"/></svg>