<svg width="56" height="56" viewBox="0 0 56 56" fill="none" xmlns="http://www.w3.org/2000/svg"><path d="M48.516 22.221a4.72 4.72 0 1 1-6.676 6.676 4.72 4.72 0 0 1 6.676-6.675M33.14 13.796a7.268 7.268 0 1 1-10.28 10.279 7.268 7.268 0 0 1 10.28-10.28M14.16 22.221a4.72 4.72 0 1 1-6.676 6.676 4.72 4.72 0 0 1 6.676-6.675M53.667 44.333v-2.557a5.832 5.832 0 0 0-5.834-5.833h-1.869M2.333 44.333v-2.557a5.832 5.832 0 0 1 5.834-5.833h1.869M40.458 44.333v-3.735a8.167 8.167 0 0 0-8.167-8.167h-8.584a8.167 8.167 0 0 0-8.167 8.167v3.735" stroke="red" stroke-width="2" stroke-linecap="round" stroke-linejoin="round"/></svg>
